<svg width="512" height="512" viewBox="0 0 512 512" fill="none" xmlns="http://www.w3.org/2000/svg">
<path fill-rule="evenodd" clip-rule="evenodd" d="M0 256.002V512.004L256.25 511.752L512.5 511.5L512.752 255.75L513.004 0H256.502H0V256.002ZM0.492 256.5C0.492 397.3 0.608 454.751 0.75 384.17C0.892 313.588 0.892 198.388 0.75 128.17C0.608 57.951 0.492 115.7 0.492 256.5ZM414 86.572C397.858 89.349 391.26 92.976 378.365 106.16C361.137 123.775 341.053 146.161 326.136 164.375C315.454 177.419 307.415 185.375 305.878 184.425C305.395 184.126 305 182.939 305 181.787C305 177.96 298.132 167.338 291.966 161.629L285.886 156H279.1C263.479 156 247.801 165.082 227.935 185.638C213.33 200.75 209.017 205.915 192.098 228.553C183.077 240.624 172.465 254.775 168.517 260C159.579 271.826 151.049 284.598 143.679 297.187C139.517 304.298 136.36 308.288 131.814 312.187C113.884 327.564 103.069 339.886 88.976 360.994C74.851 382.149 59.922 408 61.83 408C62.304 408 63.999 407.356 65.596 406.568C70.356 404.221 79 400.989 79 401.556C79 401.846 76.188 403.346 72.75 404.888C69.313 406.43 65.825 408.509 65 409.507C63.568 411.239 63.838 411.293 71 410.71C82.369 409.785 104.358 404.603 121.5 398.811C162.669 384.901 185.017 374.816 217.226 355.612C225.272 350.815 238.076 344.065 245.678 340.613C277.136 326.327 280.946 323.918 313.159 297.962C354.674 264.511 369.761 250.794 384.059 233.5C404.069 209.298 445.116 152.317 459 129.47C460.925 126.302 464.188 120.994 466.25 117.674C469.34 112.7 470 110.714 470 106.391C470 102.051 469.587 100.821 467.611 99.266C462.448 95.205 450.233 89.91 442.778 88.503C434.581 86.955 418.174 85.854 414 86.572ZM403.736 103.418C394.063 107.396 385.277 113.918 373.806 125.639C365.353 134.276 361.104 139.55 340.479 167C332.834 177.175 320.242 193.375 312.495 203C304.749 212.625 295.282 224.55 291.456 229.499C287.63 234.448 283.751 239.398 282.834 240.499C281.918 241.6 278.281 246.19 274.752 250.701C262.895 265.852 229.695 301.109 205.824 323.898C184.912 343.862 180.711 347.39 169.824 354.122C149.338 366.792 123.06 380.458 88.164 396.589C83.579 398.708 80.306 400.602 80.892 400.797C81.478 400.993 83.654 400.252 85.728 399.151C87.803 398.051 94.675 394.783 101 391.889C107.325 388.995 121.264 382.155 131.976 376.689C150.297 367.339 157.613 363.306 179.5 350.493C184.45 347.595 194.35 342.732 201.5 339.687C208.65 336.641 219.45 331.831 225.5 328.998C239.9 322.255 253.256 316.578 262.247 313.379C270.546 310.426 274.776 307.928 291.5 296.107C343.797 259.139 370.14 234.878 398.214 197.824C418.182 171.469 434 136.372 434 118.421C434 109.697 432.43 105.842 427.701 102.96C422.946 100.06 411.362 100.282 403.736 103.418ZM264.183 172.495C256.085 176.265 237.174 189.7 231 196.069C225.777 201.457 218.769 211.232 210.615 224.5C205.617 232.633 191 257.326 191 257.636C191 258.215 177.162 281.507 169.692 293.5C165.239 300.65 158.511 312.575 154.74 320C150.969 327.425 146.672 334.789 145.192 336.364C143.711 337.94 136.425 344.142 129 350.146C121.575 356.151 114.6 361.797 113.5 362.693C109.93 365.599 104.653 370.186 97 377.035C92.875 380.727 84.89 387.854 79.255 392.874C73.621 397.893 69.346 401.993 69.755 401.985C70.427 401.972 81.094 392.839 99 376.947C107.964 368.992 123.119 356.402 130.234 351C147.967 337.537 187.087 307.105 188 306.064C188.275 305.75 192.545 302.12 197.488 297.997C214.582 283.739 258.579 241.689 266.282 232.248C276.13 220.176 282.132 206.36 284.986 189.191C286.435 180.471 285.712 175.621 282.479 172.388C279.155 169.064 271.457 169.109 264.183 172.495Z" fill="#61DAFB"/>
</svg>
